<?xml version="1.0" encoding="utf-8"?>
<!-- Generator: Adobe Illustrator 20.0.0, SVG Export Plug-In . SVG Version: 6.00 Build 0)  -->
<svg version="1.1" id="Layer_1" xmlns="http://www.w3.org/2000/svg" xmlns:xlink="http://www.w3.org/1999/xlink" x="0px" y="0px"
	 viewBox="0 0 162.3 41.2" style="enable-background:new 0 0 162.3 41.2;" xml:space="preserve">
<style type="text/css">
	.st0{fill:#231F20;}
</style>
<path class="st0" d="M23.5,16c-0.1-1.8-2.1-3-4-3c-4.7,0-5.5,4.3-5.5,7.6c0,3.9,1.2,7.6,5.3,7.6c2,0,3.8-1,4.1-3h2.8
	c-0.3,3.2-3.4,5.2-7.1,5.2c-5.6,0-7.8-4.5-7.8-9.8c0-4.6,2-10,8.4-9.8c3.6,0.1,6.4,1.9,6.6,5.3L23.5,16"/>
<path class="st0" d="M30.8,24c-0.2,2.3,0.8,4.7,3.3,4.7c1.9,0,2.9-0.8,3.2-2.7h2.6c-0.4,3-2.7,4.5-5.8,4.5c-4.2,0-5.9-3-5.9-6.9
	s1.9-7.1,6.1-7.1c3.9,0.1,5.8,2.6,5.8,6.2v1.2L30.8,24 M37.4,22.2c0-2.2-0.9-3.9-3.4-3.9c-2.1,0-3.3,1.8-3.3,3.9H37.4z"/>
<path class="st0" d="M45,18.9L45,18.9c0.9-1.4,2.4-2.3,4-2.3c0.9,0,5,0.2,5,4.5v9h-2.5v-8.2c0-2.2-0.9-3.4-3-3.4
	c-0.9,0-1.8,0.4-2.4,1c-0.4,0.4-1,0.9-1,3.5v7.1h-2.5V17H45V18.9"/>
<path class="st0" d="M57.9,16.9v-2.8l2.5-0.8v3.6h3v1.8h-3v8.4c0,0.9,0.7,1.4,1.6,1.4c0.4,0,0.9,0,1.3-0.1v1.9
	c-0.6,0-1.1,0.1-1.7,0.1s-1.1,0-1.7-0.1s-1.1-0.4-1.5-0.9c-0.5-0.6-0.6-0.7-0.6-2.4v-8.3h-2.2v-1.8L57.9,16.9"/>
<path class="st0" d="M74.3,16.9h2.5V30h-2.4v-1.9h-0.1c-1,1.5-2.7,2.4-4.5,2.3c-2.8,0-4.3-2.1-4.3-4.7v-8.8H68v7.8
	c0,2.3,0.5,4,2.9,4c1.3,0,2.4-0.7,2.9-1.9c0.3-1,0.5-2,0.5-3.1V16.9"/>
<path class="st0" d="M82.6,30h-2.5V16.9h2.5v2.5l0,0c0.4-1.7,2.1-2.9,3.8-2.7c0.3,0,0.6,0,0.9,0v2.4C87,19,86.6,18.9,86.2,19
	c-3.1,0.1-3.7,1.8-3.7,4.5L82.6,30"/>
<polyline class="st0" points="94.7,35.1 92.2,35.1 94.2,30 88.7,16.9 91.5,16.9 95.6,27.3 99.8,16.9 102.4,16.9 94.7,35.1 "/>
<polyline class="st0" points="104.3,30 104.3,11.2 108.4,11.2 108.4,26.9 116.6,26.9 116.6,30 104.3,30 "/>
<path class="st0" d="M118.9,11.2h4.2v3.4h-4.2V11.2z M119,16.9h3.9V30H119V16.9z"/>
<path class="st0" d="M130.6,18.4L130.6,18.4c0.9-1.3,2.5-2,4.1-1.9c1.3,0,3.8,1,4.3,2.9c0.2,0.7,0.3,1.4,0.3,2.1V30h-3.9v-7.9
	c0-1.4-0.4-3-2.3-3c-1.2,0-2.3,1.1-2.4,3V30h-3.9V16.9h3.9L130.6,18.4"/>
<polyline class="st0" points="146.9,22.2 147,22.3 150.9,16.8 155.2,16.8 150.7,22.5 155.5,30 150.9,30 147,22.9 146.9,22.9 
	146.9,30 143,30 143,11.2 146.9,11.2 146.9,22.2 "/>
<path class="st0" d="M157.1,19.2c0-1.4,1.1-2.5,2.5-2.5s2.5,1.1,2.5,2.5s-1.1,2.5-2.5,2.5l0,0C158.2,21.7,157.1,20.6,157.1,19.2z
	 M161.6,19.2c0-1.1-0.9-2.1-2.1-2.1c-1.1,0-2.1,0.9-2.1,2.1c0,1.1,0.9,2.1,2.1,2.1c1.1,0,2-0.8,2.1-1.9
	C161.6,19.3,161.6,19.3,161.6,19.2L161.6,19.2z M159,20.6h-0.4v-2.8h1.2c0.7,0,1,0.3,1,0.8s-0.4,0.8-0.9,0.8l0.8,1.3h-0.4l-0.8-1.3
	h-0.6L159,20.6z M159.5,19c0.4,0,1,0.1,1-0.5c0-0.5-0.3-0.5-0.7-0.5H159v0.9L159.5,19z"/>
</svg>
